<?xml version="1.0" encoding="UTF-8" standalone="no"?>
<!-- Uploaded to: SVG Repo, www.svgrepo.com, Generator: SVG Repo Mixer Tools -->

<svg
   fill="#000000"
   height="800px"
   width="800px"
   version="1.1"
   id="Layer_1"
   viewBox="0 0 512.011 512.011"
   xml:space="preserve"
   sodipodi:docname="coding.svg"
   inkscape:version="1.4.2 (ebf0e940d0, 2025-05-08)"
   xmlns:inkscape="http://www.inkscape.org/namespaces/inkscape"
   xmlns:sodipodi="http://sodipodi.sourceforge.net/DTD/sodipodi-0.dtd"
   xmlns="http://www.w3.org/2000/svg"
   xmlns:svg="http://www.w3.org/2000/svg"><defs
   id="defs11" /><sodipodi:namedview
   id="namedview11"
   pagecolor="#ffffff"
   bordercolor="#000000"
   borderopacity="0.25"
   inkscape:showpageshadow="2"
   inkscape:pageopacity="0.0"
   inkscape:pagecheckerboard="0"
   inkscape:deskcolor="#d1d1d1"
   showguides="true"
   inkscape:zoom="0.46"
   inkscape:cx="-26.086957"
   inkscape:cy="567.39131"
   inkscape:window-width="1896"
   inkscape:window-height="1139"
   inkscape:window-x="0"
   inkscape:window-y="0"
   inkscape:window-maximized="1"
   inkscape:current-layer="g9" />
<g
   id="g11">
	<g
   id="g10">
		<g
   id="g9">
			<path
   d="M213.333,64.005H106.667c-11.782,0-21.333,9.551-21.333,21.333v106.667c0,11.782,9.551,21.333,21.333,21.333h106.667     c11.782,0,21.333-9.551,21.333-21.333V85.339C234.667,73.557,225.115,64.005,213.333,64.005z M192,170.672h-64v-64h64V170.672z"
   id="path1"
   style="fill:#414141;fill-opacity:1" />
			<path
   d="M213.333,234.672H106.667c-11.782,0-21.333,9.551-21.333,21.333c0,11.782,9.551,21.333,21.333,21.333h106.667     c11.782,0,21.333-9.551,21.333-21.333C234.667,244.223,225.115,234.672,213.333,234.672z"
   id="path2"
   style="fill:#414141;fill-opacity:1" />
			<path
   d="M277.333,149.339h21.333c11.782,0,21.333-9.551,21.333-21.333c0-11.782-9.551-21.333-21.333-21.333h-21.333     c-11.782,0-21.333,9.551-21.333,21.333C256,139.787,265.551,149.339,277.333,149.339z"
   id="path3"
   style="fill:#414141;fill-opacity:1" />
			<path
   d="M405.333,106.672h-42.667c-11.782,0-21.333,9.551-21.333,21.333c0,11.782,9.551,21.333,21.333,21.333h42.667     c11.782,0,21.333-9.551,21.333-21.333C426.667,116.223,417.115,106.672,405.333,106.672z"
   id="path4"
   style="fill:#414141;fill-opacity:1" />
			<path
   d="M405.333,170.672H384c-11.782,0-21.333,9.551-21.333,21.333s9.551,21.333,21.333,21.333h21.333     c11.782,0,21.333-9.551,21.333-21.333S417.115,170.672,405.333,170.672z"
   id="path5"
   style="fill:#414141;fill-opacity:1" />
			<path
   d="M320,170.672h-42.667c-11.782,0-21.333,9.551-21.333,21.333s9.551,21.333,21.333,21.333H320     c11.782,0,21.333-9.551,21.333-21.333S331.782,170.672,320,170.672z"
   id="path6"
   style="fill:#414141;fill-opacity:1" />
			<path
   d="M298.667,234.672h-21.333c-11.782,0-21.333,9.551-21.333,21.333c0,11.782,9.551,21.333,21.333,21.333h21.333     c11.782,0,21.333-9.551,21.333-21.333C320,244.223,310.449,234.672,298.667,234.672z"
   id="path7"
   style="fill:#414141;fill-opacity:1" />
			<path
   d="M405.333,234.672h-42.667c-11.782,0-21.333,9.551-21.333,21.333c0,11.782,9.551,21.333,21.333,21.333h42.667     c11.782,0,21.333-9.551,21.333-21.333C426.667,244.223,417.115,234.672,405.333,234.672z"
   id="path8"
   style="fill:#414141;fill-opacity:1" />
			<path
   d="M512,319.794V59.547c0-32.881-26.661-59.541-59.541-59.541H59.541C26.661,0.005,0,26.666,0,59.547v260.459     c0,0.071,0.01,0.14,0.011,0.211v46.914c0,32.881,26.64,59.541,59.52,59.541h105.146l-10.667,42.667h-4.677     c-11.782,0-21.333,9.551-21.333,21.333s9.551,21.333,21.333,21.333h21.333h170.667h21.333c11.782,0,21.333-9.551,21.333-21.333     s-9.551-21.333-21.333-21.333h-4.677l-10.667-42.667h105.146c32.881,0,59.541-26.661,59.541-59.541v-47.125     C512.011,319.934,512.001,319.865,512,319.794z M42.667,59.547c0-9.317,7.558-16.875,16.875-16.875h392.917     c9.317,0,16.875,7.558,16.875,16.875v239.125H42.667V59.547z M314.01,469.339H197.99l10.667-42.667h94.687L314.01,469.339z      M469.344,367.131c0,9.317-7.558,16.875-16.875,16.875H320H192H59.531c-9.309,0-16.853-7.55-16.853-16.875v-25.792h426.667     V367.131z"
   id="path9"
   style="fill:#414141;fill-opacity:1" />
		</g>
	</g>
</g>
</svg>
