<?xml version="1.0" encoding="UTF-8" standalone="no"?>
<!-- Uploaded to: SVG Repo, www.svgrepo.com, Generator: SVG Repo Mixer Tools -->

<svg
   width="800px"
   height="800px"
   viewBox="0 0 48 48"
   version="1.1"
   id="svg3"
   sodipodi:docname="research.svg"
   inkscape:version="1.4.2 (ebf0e940d0, 2025-05-08)"
   xmlns:inkscape="http://www.inkscape.org/namespaces/inkscape"
   xmlns:sodipodi="http://sodipodi.sourceforge.net/DTD/sodipodi-0.dtd"
   xmlns="http://www.w3.org/2000/svg"
   xmlns:svg="http://www.w3.org/2000/svg">
  <defs
     id="defs3" />
  <sodipodi:namedview
     id="namedview3"
     pagecolor="#ffffff"
     bordercolor="#000000"
     borderopacity="0.25"
     inkscape:showpageshadow="2"
     inkscape:pageopacity="0.0"
     inkscape:pagecheckerboard="0"
     inkscape:deskcolor="#d1d1d1"
     inkscape:zoom="0.555625"
     inkscape:cx="680.31496"
     inkscape:cy="410.34871"
     inkscape:window-width="1896"
     inkscape:window-height="1139"
     inkscape:window-x="0"
     inkscape:window-y="0"
     inkscape:window-maximized="1"
     inkscape:current-layer="Q3_icons" />
  <title
     id="title1">ai</title>
  <g
     id="Layer_2"
     data-name="Layer 2">
    <g
       id="invisible_box"
       data-name="invisible box">
      <rect
         width="48"
         height="48"
         fill="none"
         id="rect1" />
    </g>
    <g
       id="Q3_icons"
       data-name="Q3 icons">
      <g
         id="g3"
         style="fill:#4444ff;fill-opacity:1">
        <path
           d="M45.6,18.7,41,14.9V7.5a1,1,0,0,0-.6-.9L30.5,2.1h-.4l-.6.2L24,5.9,18.5,2.2,17.9,2h-.4L7.6,6.6a1,1,0,0,0-.6.9v7.4L2.4,18.7a.8.8,0,0,0-.4.8v9H2a.8.8,0,0,0,.4.8L7,33.1v7.4a1,1,0,0,0,.6.9l9.9,4.5h.4l.6-.2L24,42.1l5.5,3.7.6.2h.4l9.9-4.5a1,1,0,0,0,.6-.9V33.1l4.6-3.8a.8.8,0,0,0,.4-.7V19.4h0A.8.8,0,0,0,45.6,18.7Zm-5.1,6.8H42v1.6l-3.5,2.8-.4.3-.4-.2a1.4,1.4,0,0,0-2,.7,1.5,1.5,0,0,0,.6,2l.7.3h0v5.4l-6.6,3.1-4.2-2.8-.7-.5V25.5H27a1.5,1.5,0,0,0,0-3H25.5V9.7l.7-.5,4.2-2.8L37,9.5v5.4h0l-.7.3a1.5,1.5,0,0,0-.6,2,1.4,1.4,0,0,0,1.3.9l.7-.2.4-.2.4.3L42,20.9v1.6H40.5a1.5,1.5,0,0,0,0,3ZM21,25.5h1.5V38.3l-.7.5-4.2,2.8L11,38.5V33.1h0l.7-.3a1.5,1.5,0,0,0,.6-2,1.4,1.4,0,0,0-2-.7l-.4.2-.4-.3L6,27.1V25.5H7.5a1.5,1.5,0,0,0,0-3H6V20.9l3.5-2.8.4-.3.4.2.7.2a1.4,1.4,0,0,0,1.3-.9,1.5,1.5,0,0,0-.6-2L11,15h0V9.5l6.6-3.1,4.2,2.8.7.5V22.5H21a1.5,1.5,0,0,0,0,3Z"
           id="path1"
           style="fill:#4444ff;fill-opacity:1" />
        <path
           d="M13.9,9.9a1.8,1.8,0,0,0,0,2.2l2.6,2.5v2.8l-4,4v5.2l4,4v2.8l-2.6,2.5a1.8,1.8,0,0,0,0,2.2,1.5,1.5,0,0,0,1.1.4,1.5,1.5,0,0,0,1.1-.4l3.4-3.5V29.4l-4-4V22.6l4-4V13.4L16.1,9.9A1.8,1.8,0,0,0,13.9,9.9Z"
           id="path2"
           style="fill:#4444ff;fill-opacity:1" />
        <path
           d="M31.5,14.6l2.6-2.5a1.8,1.8,0,0,0,0-2.2,1.8,1.8,0,0,0-2.2,0l-3.4,3.5v5.2l4,4v2.8l-4,4v5.2l3.4,3.5a1.7,1.7,0,0,0,2.2,0,1.8,1.8,0,0,0,0-2.2l-2.6-2.5V30.6l4-4V21.4l-4-4Z"
           id="path3"
           style="fill:#4444ff;fill-opacity:1" />
      </g>
    </g>
  </g>
</svg>
