<?xml version="1.0" encoding="UTF-8" standalone="no"?>
<!-- Uploaded to: SVG Repo, www.svgrepo.com, Generator: SVG Repo Mixer Tools -->

<svg
   fill="#000000"
   width="800px"
   height="800px"
   viewBox="0 0 32 32"
   version="1.1"
   id="svg1"
   sodipodi:docname="speech.svg"
   inkscape:version="1.4.2 (ebf0e940d0, 2025-05-08)"
   xmlns:inkscape="http://www.inkscape.org/namespaces/inkscape"
   xmlns:sodipodi="http://sodipodi.sourceforge.net/DTD/sodipodi-0.dtd"
   xmlns="http://www.w3.org/2000/svg"
   xmlns:svg="http://www.w3.org/2000/svg">
  <defs
     id="defs1" />
  <sodipodi:namedview
     id="namedview1"
     pagecolor="#ffffff"
     bordercolor="#000000"
     borderopacity="0.25"
     inkscape:showpageshadow="2"
     inkscape:pageopacity="0.0"
     inkscape:pagecheckerboard="0"
     inkscape:deskcolor="#d1d1d1"
     inkscape:zoom="1.11125"
     inkscape:cx="399.55006"
     inkscape:cy="399.55006"
     inkscape:window-width="1896"
     inkscape:window-height="1139"
     inkscape:window-x="0"
     inkscape:window-y="0"
     inkscape:window-maximized="1"
     inkscape:current-layer="svg1" />
  <path
     d="M30 1.988h-28c-1.105 0-2 0.895-2 2v18.047c0 1.105 0.895 2 2 2h3.986v4.979c0 0.404 0.242 0.767 0.614 0.922 0.125 0.052 0.257 0.078 0.386 0.078 0.258 0 0.51-0.099 0.701-0.287l5.782-5.692h16.532c1.105 0 2-0.895 2-2v-18.047c0-1.104-0.895-2-2-2zM30 22.034h-17.351l-4.664 4.591v-4.591h-5.986v-18.047h28v18.047zM7 14.031h18c0.552 0 1-0.448 1-1s-0.448-1-1-1h-18c-0.552 0-1 0.448-1 1s0.448 1 1 1zM7 10.031h18c0.552 0 1-0.448 1-1s-0.448-1-1-1h-18c-0.552 0-1 0.448-1 1s0.448 1 1 1zM7 18.032h12c0.552 0 1-0.448 1-1s-0.448-1-1-1h-12c-0.552 0-1 0.448-1 1s0.448 1 1 1z"
     id="path1"
     style="fill:#ff5252;fill-opacity:1" />
</svg>
